<svg width="100" height="38" viewBox="0 0 100 38" fill="none" xmlns="http://www.w3.org/2000/svg">
<path d="M11.4 3.8V0H26.6V3.8H30.4V7.6H34.2V11.4H38V26.6H34.2V30.4H30.4V34.2H26.6V38H11.4V34.2H7.6V30.4H3.8V26.6H0V11.4H3.8V7.6H7.6V3.8H11.4Z" fill="#FCC601"/>
<path d="M7.59998 7.6001H11.4V11.4001H7.59998V7.6001Z" fill="#FFF15D"/>
<path d="M26.6 7.6001H30.4V11.4001H26.6V7.6001Z" fill="#FFF15D"/>
<rect x="11.4" y="11.3999" width="15.2" height="15.2" fill="#F8A700"/>
<path d="M7.59998 26.5999H11.4V30.3999H7.59998V26.5999Z" fill="#C87B00"/>
<path d="M26.6 26.5999H30.4V30.3999H26.6V26.5999Z" fill="#C87B00"/>
<path d="M11.4 3.80005H30.4V7.60005H11.4V3.80005Z" fill="#F8A700"/>
<path d="M30.4 7.60005H34.2V26.6H30.4V7.60005Z" fill="#F8A700"/>
<path d="M3.79999 11.4H7.59999V30.4H3.79999V11.4Z" fill="#F8A700"/>
<path d="M7.59999 30.4H26.6V34.2H7.59999V30.4Z" fill="#F8A700"/>
<path d="M34.2 11.3999H38V26.5999H34.2V11.3999Z" fill="#E88F00"/>
<path d="M30.4 26.5999H34.2V30.3999H30.4V26.5999Z" fill="#E88F00"/>
<path d="M26.6 30.3999H30.4V34.1999H26.6V30.3999Z" fill="#E88F00"/>
<path d="M11.4 34.1999H26.6V37.9999H11.4V34.1999Z" fill="#E88F00"/>
<path d="M6.74173 25.8728H18.0456V12.1968H13.39V23.2353H11.3974V20.3438H6.74173V25.8728Z" fill="black"/>
<path d="M18.0341 12.1968H13.3357V25.8728H18.0341V20.3438H19.762V23.2353H23.2372V20.3438H24.9651V25.8728H29.6635V12.1968H24.9651V14.8343H23.2372V17.7063H19.762V14.8343H18.0341V12.1968Z" fill="black"/>
<path d="M49.4394 17.4193H57.8236V7.47046H54.3705V15.5H52.8925V13.4108H49.4394V17.4182V17.4193ZM62.2734 7.47103H58.8346V17.4193H67.2188L67.2045 7.4716H63.7656V15.5011H62.2734V7.47103V7.47103ZM76.6002 17.4193V11.4784H71.6692V9.38918H76.6002V7.47046H68.2297V13.4108H73.1608V15.5H68.2297V17.4182H76.6002V17.4193ZM83.5373 9.38975H85.9817V7.47103H77.6112V9.38975H80.0984V17.4187H83.5373V9.38975V9.38975ZM52.718 20.5896H49.2792V30.5367H52.718V26.5294H53.9827V28.6186H56.5264V26.5294H57.7911V30.5367H61.2305V20.5896H57.7911V22.5083H56.5264V24.597H53.9833V22.5083H52.718V20.5896V20.5896ZM62.2409 30.5367H70.6257V20.5896H62.2409V30.5367V30.5367ZM65.6798 22.5077H67.172V28.618H65.6798V22.5077V22.5077ZM77.7469 20.5896V24.5964H76.4822V22.5077H75.0755V20.589H71.6361V30.5367H75.0755V25.6056H76.4395V27.7091H77.7469V30.5373H81.1864V20.5885H77.7469V20.5896ZM85.6362 26.5294H90.5821V24.5964H85.6362V22.5077H90.5821V20.589H82.1973V30.5367H90.5821V28.6186H85.6362V26.5294ZM95.0319 20.5896H91.5925V25.5629H94.0369V30.5367H97.4901V25.5629H99.9773V20.5896H96.5241V23.6025H95.0319V20.5896V20.5896Z" fill="#15181D"/>
<path d="M87.4579 17.3735H90.8543V14.6118H87.4579V17.3735Z" fill="#F8BA00"/>
</svg>
